<svg xmlns="http://www.w3.org/2000/svg" version="1.1" xmlnsXlink="http://www.w3.org/1999/xlink" xmlnsSvgjs="http://svgjs.dev/svgjs" width="1000" height="204" viewBox="0 0 1000 204"><g transform="matrix(1,0,0,1,-0.6060588311407855,0.4966271325129554)"><svg viewBox="0 0 396 81" data-background-color="#ffffff" preserveAspectRatio="xMidYMid meet" height="204" width="1000" xmlns="http://www.w3.org/2000/svg" xmlnsXlink="http://www.w3.org/1999/xlink"><g id="tight-bounds" transform="matrix(1,0,0,1,0.23999929713176016,-0.19719018496837748)"><svg viewBox="0 0 395.52 81.3943788174622" height="81.3943788174622" width="395.52"><g><svg viewBox="0 0 514.0184743954596 105.78027514188419" height="81.3943788174622" width="395.52"><g transform="matrix(1,0,0,1,118.49847439545967,25.953474687854698)"><svg viewBox="0 0 395.52 53.873325766174794" height="53.873325766174794" width="395.52"><g><svg viewBox="0 0 395.52 53.873325766174794" height="53.873325766174794" width="395.52"><g><svg viewBox="0 0 395.52 53.873325766174794" height="53.873325766174794" width="395.52"><g transform="matrix(1,0,0,1,0,0)"><svg width="395.52" viewBox="3 -35.5 264.2799987792969 36" height="53.873325766174794" data-palette-color="#000000"><path d="M16.95 0.5L16.95 0.5Q12.35 0.5 9.33-1.2 6.3-2.9 4.75-5.95 3.2-9 3.05-13.05L3.05-13.05Q3-15.1 3-17.45 3-19.8 3.05-21.95L3.05-21.95Q3.2-26 4.75-29.05 6.3-32.1 9.33-33.8 12.35-35.5 16.95-35.5L16.95-35.5Q20.4-35.5 23-34.55 25.6-33.6 27.33-32 29.05-30.4 29.95-28.43 30.85-26.45 30.95-24.35L30.95-24.35Q31-23.9 30.68-23.6 30.35-23.3 29.9-23.3L29.9-23.3 27.15-23.3Q26.7-23.3 26.38-23.55 26.05-23.8 25.9-24.45L25.9-24.45Q25.05-28.35 22.73-29.8 20.4-31.25 16.95-31.25L16.95-31.25Q12.9-31.25 10.55-28.98 8.2-26.7 8.05-21.7L8.05-21.7Q7.9-17.6 8.05-13.3L8.05-13.3Q8.2-8.3 10.55-6.03 12.9-3.75 16.95-3.75L16.95-3.75Q20.4-3.75 22.73-5.2 25.05-6.65 25.9-10.55L25.9-10.55Q26.05-11.2 26.38-11.45 26.7-11.7 27.15-11.7L27.15-11.7 29.9-11.7Q30.35-11.7 30.68-11.43 31-11.15 30.95-10.7L30.95-10.7Q30.85-8.6 29.95-6.6 29.05-4.6 27.33-3 25.6-1.4 23-0.45 20.4 0.5 16.95 0.5ZM41.35 0L38.8 0Q38.25 0 37.95-0.33 37.65-0.65 37.65-1.15L37.65-1.15 37.65-33.8Q37.65-34.35 37.95-34.68 38.25-35 38.8-35L38.8-35 41.35-35Q41.9-35 42.22-34.68 42.55-34.35 42.55-33.8L42.55-33.8 42.55-20 59.75-20 59.75-33.8Q59.75-34.35 60.07-34.68 60.4-35 60.9-35L60.9-35 63.45-35Q64-35 64.32-34.68 64.65-34.35 64.65-33.8L64.65-33.8 64.65-1.15Q64.65-0.65 64.32-0.33 64 0 63.45 0L63.45 0 60.9 0Q60.4 0 60.07-0.33 59.75-0.65 59.75-1.15L59.75-1.15 59.75-15.5 42.55-15.5 42.55-1.15Q42.55-0.65 42.22-0.33 41.9 0 41.35 0L41.35 0ZM73.55 0L71 0Q70.59 0 70.3-0.3 70-0.6 70-1L70-1Q70-1.25 70.05-1.55L70.05-1.55 82.45-33.9Q82.65-34.4 83-34.7 83.34-35 84.05-35L84.05-35 87.45-35Q88.15-35 88.5-34.7 88.84-34.4 89.05-33.9L89.05-33.9 101.4-1.55Q101.5-1.25 101.5-1L101.5-1Q101.5-0.6 101.2-0.3 100.9 0 100.5 0L100.5 0 97.95 0Q97.34 0 97.07-0.3 96.8-0.6 96.7-0.85L96.7-0.85 93.95-7.95 77.55-7.95 74.8-0.85Q74.75-0.6 74.45-0.3 74.15 0 73.55 0L73.55 0ZM85.75-30L79-12.25 92.5-12.25 85.75-30ZM118.24 0L115.64 0Q115.14 0 114.82-0.33 114.49-0.65 114.49-1.15L114.49-1.15 114.49-30.55 104.89-30.55Q104.39-30.55 104.07-30.88 103.74-31.2 103.74-31.7L103.74-31.7 103.74-33.8Q103.74-34.35 104.07-34.68 104.39-35 104.89-35L104.89-35 128.99-35Q129.54-35 129.87-34.68 130.19-34.35 130.19-33.8L130.19-33.8 130.19-31.7Q130.19-31.2 129.87-30.88 129.54-30.55 128.99-30.55L128.99-30.55 119.44-30.55 119.44-1.15Q119.44-0.65 119.12-0.33 118.79 0 118.24 0L118.24 0ZM139.49 0L136.94 0Q136.39 0 136.09-0.33 135.79-0.65 135.79-1.15L135.79-1.15 135.79-33.8Q135.79-34.35 136.09-34.68 136.39-35 136.94-35L136.94-35 149.14-35Q154.79-35 158.09-32.35 161.39-29.7 161.39-24.5L161.39-24.5Q161.39-20.65 159.47-18.23 157.54-15.8 154.24-14.85L154.24-14.85 161.94-1.55Q162.09-1.25 162.09-1L162.09-1Q162.09-0.6 161.76-0.3 161.44 0 161.04 0L161.04 0 158.64 0Q157.79 0 157.39-0.45 156.99-0.9 156.69-1.35L156.69-1.35 149.44-14.05 140.69-14.05 140.69-1.15Q140.69-0.65 140.37-0.33 140.04 0 139.49 0L139.49 0ZM140.69-30.8L140.69-18.3 148.94-18.3Q152.69-18.3 154.54-19.88 156.39-21.45 156.39-24.55L156.39-24.55Q156.39-27.6 154.56-29.2 152.74-30.8 148.94-30.8L148.94-30.8 140.69-30.8ZM181.14 0.5L181.14 0.5Q176.84 0.5 173.79-0.98 170.74-2.45 169.09-5.53 167.44-8.6 167.24-13.25L167.24-13.25Q167.19-15.45 167.19-17.48 167.19-19.5 167.24-21.7L167.24-21.7Q167.44-26.3 169.16-29.38 170.89-32.45 173.96-33.98 177.04-35.5 181.14-35.5L181.14-35.5Q185.19-35.5 188.26-33.98 191.34-32.45 193.09-29.38 194.84-26.3 194.99-21.7L194.99-21.7Q195.09-19.5 195.09-17.48 195.09-15.45 194.99-13.25L194.99-13.25Q194.84-8.6 193.16-5.53 191.49-2.45 188.44-0.98 185.39 0.5 181.14 0.5ZM181.14-3.75L181.14-3.75Q184.94-3.75 187.36-6.05 189.79-8.35 189.99-13.5L189.99-13.5Q190.09-15.75 190.09-17.53 190.09-19.3 189.99-21.5L189.99-21.5Q189.89-24.95 188.71-27.1 187.54-29.25 185.59-30.25 183.64-31.25 181.14-31.25L181.14-31.25Q178.64-31.25 176.69-30.25 174.74-29.25 173.56-27.1 172.39-24.95 172.24-21.5L172.24-21.5Q172.19-19.3 172.19-17.53 172.19-15.75 172.24-13.5L172.24-13.5Q172.44-8.35 174.89-6.05 177.34-3.75 181.14-3.75ZM214.98 0.5L214.98 0.5Q210.69 0.5 207.63-0.98 204.59-2.45 202.94-5.53 201.28-8.6 201.09-13.25L201.09-13.25Q201.03-15.45 201.03-17.48 201.03-19.5 201.09-21.7L201.09-21.7Q201.28-26.3 203.01-29.38 204.73-32.45 207.81-33.98 210.88-35.5 214.98-35.5L214.98-35.5Q219.03-35.5 222.11-33.98 225.19-32.45 226.94-29.38 228.69-26.3 228.84-21.7L228.84-21.7Q228.94-19.5 228.94-17.48 228.94-15.45 228.84-13.25L228.84-13.25Q228.69-8.6 227.01-5.53 225.34-2.45 222.28-0.98 219.24 0.5 214.98 0.5ZM214.98-3.75L214.98-3.75Q218.78-3.75 221.21-6.05 223.63-8.35 223.84-13.5L223.84-13.5Q223.94-15.75 223.94-17.53 223.94-19.3 223.84-21.5L223.84-21.5Q223.74-24.95 222.56-27.1 221.38-29.25 219.44-30.25 217.49-31.25 214.98-31.25L214.98-31.25Q212.48-31.25 210.53-30.25 208.59-29.25 207.41-27.1 206.23-24.95 206.09-21.5L206.09-21.5Q206.03-19.3 206.03-17.53 206.03-15.75 206.09-13.5L206.09-13.5Q206.28-8.35 208.73-6.05 211.19-3.75 214.98-3.75ZM239.83 0L237.38 0Q236.88 0 236.56-0.33 236.23-0.65 236.23-1.15L236.23-1.15 236.23-33.8Q236.23-34.35 236.56-34.68 236.88-35 237.38-35L237.38-35 239.88-35Q240.48-35 240.78-34.7 241.08-34.4 241.18-34.2L241.18-34.2 251.73-14 262.38-34.2Q262.48-34.4 262.76-34.7 263.03-35 263.63-35L263.63-35 266.08-35Q266.63-35 266.96-34.68 267.28-34.35 267.28-33.8L267.28-33.8 267.28-1.15Q267.28-0.65 266.96-0.33 266.63 0 266.08 0L266.08 0 263.63 0Q263.13 0 262.81-0.33 262.48-0.65 262.48-1.15L262.48-1.15 262.48-25.75 254.13-9.45Q253.93-8.95 253.53-8.68 253.13-8.4 252.53-8.4L252.53-8.4 250.98-8.4Q250.33-8.4 249.98-8.68 249.63-8.95 249.38-9.45L249.38-9.45 240.98-25.75 240.98-1.15Q240.98-0.65 240.66-0.33 240.33 0 239.83 0L239.83 0Z" opacity="1" transform="matrix(1,0,0,1,0,0)" fill="#000000" class="undefined-text-0" data-fill-palette-color="primary" id="text-0"></path></svg></g></svg></g></svg></g></svg></g><g><svg viewBox="0 0 105.78027514188419 105.78027514188419" height="105.78027514188419" width="105.78027514188419"><g><svg xmlns="http://www.w3.org/2000/svg" xmlnsXlink="http://www.w3.org/1999/xlink" version="1.1" x="0" y="0" viewBox="0 -0.0000019073486328125 100 100" style="enable-background:new 0 0 100 100;" xml:space="preserve" width="105.78027514188419" height="105.78027514188419" class="icon-icon-0" data-fill-palette-color="accent" id="icon-0"><g fill="#61777f" data-fill-palette-color="accent"><path d="M81.177 38.165c-0.085 4.334-1.05 8.423-2.759 12.152C87.427 51.818 87.5 59.155 87.5 62.5c0 3.101 0 12.5-12.488 12.5H62.5c-8.143 0-15.43 3.931-19.995 10.01C39.478 82.715 37.5 79.077 37.5 75V62.5c0-2.472 0.439-4.419 1.123-6.024-0.366-0.067-0.732-0.226-1.123-0.226H25.635c-0.402 1.935-0.623 4.004-0.623 6.25V75c0 13.807 11.182 25 24.988 25 0-6.909 5.591-12.5 12.5-12.5h12.512C87.5 87.5 100 80.469 100 62.5 100 47.211 91.309 40.125 81.177 38.165z" fill="#61777f" data-fill-palette-color="accent"></path></g><path d="M50 12.5c4.663 0 12.5 1.623 12.5 12.5v12.5c0 4.09-1.978 7.721-5.005 10.004C52.93 41.437 45.654 37.5 37.5 37.5H25.012C12.5 37.5 12.5 28.095 12.5 25c0-3.735 0-12.5 12.512-12.5H50M50 0H25.012C12.5 0 0 6.641 0 25c0 17.969 12.5 25 25.012 25H37.5C44.409 50 50 55.604 50 62.5c13.807 0 25.012-11.193 25.012-25V25C75.012 7.745 62.5 0 50 0L50 0z" fill="#61777f" data-fill-palette-color="accent"></path></svg></g></svg></g></svg></g><defs></defs></svg><rect width="395.52" height="81.3943788174622" fill="none" stroke="none" visibility="hidden"></rect></g></svg></g></svg>